<svg width="100" height="114" viewBox="0 0 100 114" fill="none" xmlns="http://www.w3.org/2000/svg">
<path d="M58.0882 113.043L56.6176 97.5H50.7353C36.7157 97.5 24.7549 92.7428 14.8529 83.2283C4.95098 73.7138 0 62.221 0 48.75C0 35.279 4.97549 23.7862 14.9265 14.2717C24.8775 4.75725 36.9118 0 51.0294 0C57.9902 0 64.4363 1.20109 70.3676 3.60326C76.299 6.00544 81.4706 9.37319 85.8824 13.7065C90.2941 18.0399 93.75 23.1504 96.25 29.038C98.75 34.9257 100 41.3551 100 48.3261C100 54.5435 99.0441 60.7609 97.1324 66.9783C95.2206 73.1957 92.451 79.1304 88.8235 84.7826C85.1961 90.4348 80.7843 95.663 75.5882 100.467C70.3922 105.272 64.5588 109.464 58.0882 113.043ZM51.0294 81.5326C52.598 81.5326 53.9216 81.0145 55 79.9783C56.0784 78.942 56.6176 77.6703 56.6176 76.163C56.6176 74.6558 56.0784 73.3841 55 72.3478C53.9216 71.3116 52.598 70.7935 51.0294 70.7935C49.4608 70.7935 48.1373 71.3116 47.0588 72.3478C45.9804 73.3841 45.4412 74.6558 45.4412 76.163C45.4412 77.6703 45.9804 78.942 47.0588 79.9783C48.1373 81.0145 49.4608 81.5326 51.0294 81.5326ZM47.0588 62.3152H54.4118C54.4118 59.9601 54.8284 58.0054 55.6618 56.4511C56.4951 54.8967 58.2353 52.8478 60.8824 50.3043C63.5294 47.7609 65.3922 45.4294 66.4706 43.3098C67.549 41.1902 68.0882 38.9058 68.0882 36.4565C68.0882 32.2174 66.5931 28.7319 63.6029 26C60.6127 23.2681 56.6176 21.9022 51.6176 21.9022C47.5 21.9022 43.8235 22.9384 40.5882 25.0109C37.3529 27.0833 34.951 29.9094 33.3824 33.4891L40.1471 36.1739C41.2255 33.7246 42.7206 31.9112 44.6323 30.7337C46.5441 29.5562 48.7255 28.9674 51.1765 28.9674C54.1176 28.9674 56.4216 29.6504 58.0882 31.0163C59.7549 32.3822 60.5882 34.1957 60.5882 36.4565C60.5882 38.2464 60.049 40.0598 58.9706 41.8967C57.8922 43.7337 55.9804 46.0181 53.2353 48.75C50.5882 51.3877 48.8971 53.5072 48.1618 55.1087C47.4265 56.7101 47.0588 59.1123 47.0588 62.3152V62.3152Z" fill="url(#paint0_linear_91_686)"/>
<defs>
<linearGradient id="paint0_linear_91_686" x1="6.5" y1="3.5" x2="87.5" y2="99.5" gradientUnits="userSpaceOnUse">
<stop stop-color="#5C17E8"/>
<stop offset="1" stop-color="#8349E0"/>
</linearGradient>
</defs>
</svg>
