<svg width="130" height="124" viewBox="0 0 130 124" fill="none" xmlns="http://www.w3.org/2000/svg">
<path d="M50.7317 47.561C44.1789 47.561 38.5772 45.2358 33.9268 40.5854C29.2764 35.935 26.9512 30.3333 26.9512 23.7805C26.9512 17.122 29.2764 11.4939 33.9268 6.89634C38.5772 2.29878 44.1789 0 50.7317 0C57.3902 0 63.0183 2.29878 67.6159 6.89634C72.2134 11.4939 74.5122 17.122 74.5122 23.7805C74.5122 30.3333 72.2134 35.935 67.6159 40.5854C63.0183 45.2358 57.3902 47.561 50.7317 47.561ZM123.341 123.659L101.146 101.463C98.7155 103.26 96.2053 104.502 93.6159 105.189C91.0264 105.876 88.3577 106.22 85.6098 106.22C78.1057 106.22 71.7378 103.604 66.5061 98.372C61.2744 93.1402 58.6585 86.7724 58.6585 79.2683C58.6585 71.7642 61.2744 65.3963 66.5061 60.1646C71.7378 54.9329 78.1057 52.3171 85.6098 52.3171C93.1138 52.3171 99.4817 54.9329 104.713 60.1646C109.945 65.3963 112.561 71.7642 112.561 79.2683C112.561 82.0163 112.217 84.685 111.53 87.2744C110.843 89.8638 109.602 92.374 107.805 94.8049L130 117L123.341 123.659ZM85.6098 96.7073C90.5772 96.7073 94.7256 95.0427 98.0549 91.7134C101.384 88.3841 103.049 84.2358 103.049 79.2683C103.049 74.3008 101.384 70.1524 98.0549 66.8232C94.7256 63.4939 90.5772 61.8293 85.6098 61.8293C80.6423 61.8293 76.4939 63.4939 73.1646 66.8232C69.8354 70.1524 68.1707 74.3008 68.1707 79.2683C68.1707 84.2358 69.8354 88.3841 73.1646 91.7134C76.4939 95.0427 80.6423 96.7073 85.6098 96.7073ZM54.5366 60.4024C50.5203 66.7439 48.75 73.7195 49.2256 81.3293C49.7012 88.939 52.2114 95.6504 56.7561 101.463H0V86.561C0 82.6504 0.924797 79.3211 2.77439 76.5732C4.62398 73.8252 7.29268 71.5528 10.7805 69.7561C15.748 67.3252 22.2215 65.0264 30.2012 62.8598C38.1809 60.6931 46.2927 59.874 54.5366 60.4024Z" fill="url(#paint0_linear_91_684)"/>
<defs>
<linearGradient id="paint0_linear_91_684" x1="7" y1="13.5" x2="130" y2="124" gradientUnits="userSpaceOnUse">
<stop stop-color="#5C17E8"/>
<stop offset="1" stop-color="#8349E0"/>
</linearGradient>
</defs>
</svg>
