<svg width="125" height="125" viewBox="0 0 125 125" fill="none" xmlns="http://www.w3.org/2000/svg">
<path d="M48.125 125L45 105.313C43.0208 104.583 40.9375 103.594 38.75 102.344C36.5625 101.094 34.6354 99.7917 32.9688 98.4375L14.5312 106.875L0 81.25L16.875 68.9062C16.6667 67.9687 16.5365 66.901 16.4844 65.7031C16.4323 64.5052 16.4062 63.4375 16.4062 62.5C16.4062 61.5625 16.4323 60.4948 16.4844 59.2969C16.5365 58.099 16.6667 57.0313 16.875 56.0938L0 43.75L14.5312 18.125L32.9688 26.5625C34.6354 25.2083 36.5625 23.9063 38.75 22.6562C40.9375 21.4062 43.0208 20.4688 45 19.8438L48.125 0H76.875L80 19.6875C81.9792 20.4167 84.0885 21.3802 86.3281 22.5781C88.5677 23.776 90.4688 25.1042 92.0313 26.5625L110.469 18.125L125 43.75L108.125 55.7813C108.333 56.8229 108.464 57.9427 108.516 59.1406C108.568 60.3385 108.594 61.4583 108.594 62.5C108.594 63.5417 108.568 64.6354 108.516 65.7812C108.464 66.9271 108.333 68.0208 108.125 69.0625L125 81.25L110.469 106.875L92.0313 98.4375C90.3646 99.7917 88.4635 101.12 86.3281 102.422C84.1927 103.724 82.0833 104.688 80 105.313L76.875 125H48.125ZM62.5 82.8125C68.125 82.8125 72.9167 80.8333 76.875 76.875C80.8333 72.9167 82.8125 68.125 82.8125 62.5C82.8125 56.875 80.8333 52.0833 76.875 48.125C72.9167 44.1667 68.125 42.1875 62.5 42.1875C56.875 42.1875 52.0833 44.1667 48.125 48.125C44.1667 52.0833 42.1875 56.875 42.1875 62.5C42.1875 68.125 44.1667 72.9167 48.125 76.875C52.0833 80.8333 56.875 82.8125 62.5 82.8125Z" fill="url(#paint0_linear_91_682)"/>
<defs>
<linearGradient id="paint0_linear_91_682" x1="1.2871e-06" y1="13" x2="98" y2="103.5" gradientUnits="userSpaceOnUse">
<stop stop-color="#5C17E8"/>
<stop offset="1" stop-color="#8349E0"/>
</linearGradient>
</defs>
</svg>
