<svg width="3200" height="3200" viewBox="0 0 3200 3200" fill="none" xmlns="http://www.w3.org/2000/svg">
<circle cx="1600" cy="1600" r="1600" fill="url(#paint0_linear_57_23)"/>
<path fill-rule="evenodd" clip-rule="evenodd" d="M622 1065C622 706.015 913.015 415 1272 415H1928C2286.98 415 2578 706.015 2578 1065V2256C2578 2476.91 2398.91 2656 2178 2656H1022C801.086 2656 622 2476.91 622 2256V1065ZM813 1113C813 836.858 1036.86 613 1313 613H1887C2163.14 613 2387 836.858 2387 1113V1667C2387 1777.46 2297.46 1867 2187 1867H1013C902.543 1867 813 1777.46 813 1667V1113ZM2091 2008C2032.46 2008 1985 2055.46 1985 2114V2288C1985 2346.54 2032.46 2394 2091 2394H2112C2170.54 2394 2218 2346.54 2218 2288V2114C2218 2055.46 2170.54 2008 2112 2008H2091ZM981 2114C981 2055.46 1028.46 2008 1087 2008H1109C1167.54 2008 1215 2055.46 1215 2114V2288C1215 2346.54 1167.54 2394 1109 2394H1087C1028.46 2394 981 2346.54 981 2288V2114ZM1516 2394C1516 2374.67 1500.33 2359 1481 2359C1461.67 2359 1446 2374.67 1446 2394C1446 2431.9 1467.08 2463.22 1495.2 2483.77C1523.34 2504.34 1560.5 2516 1600 2516C1639.5 2516 1676.66 2504.34 1704.8 2483.77C1732.92 2463.22 1754 2431.9 1754 2394C1754 2374.67 1738.33 2359 1719 2359C1699.67 2359 1684 2374.67 1684 2394C1684 2404.15 1678.45 2416.33 1663.49 2427.26C1648.56 2438.18 1626.23 2446 1600 2446C1573.77 2446 1551.44 2438.18 1536.51 2427.26C1521.55 2416.33 1516 2404.15 1516 2394Z" fill="white"/>
<path d="M1098 2066C1098 2033.97 1124.47 2008 1156.5 2008C1188.53 2008 1215 2033.97 1215 2066C1215 2098.03 1188.53 2124 1156.5 2124C1124.47 2124 1098 2098.03 1098 2066Z" fill="white"/>
<path d="M2102 2066C2102 2033.97 2128.47 2008 2160.5 2008C2192.53 2008 2219 2033.97 2219 2066C2219 2098.03 2192.53 2124 2160.5 2124C2128.47 2124 2102 2098.03 2102 2066Z" fill="white"/>
<path d="M1695 664C1695 652.954 1703.95 644 1715 644H1935.5C2079.92 644 2197 761.078 2197 905.5V1796C2197 1818.09 2179.09 1836 2157 1836H1735C1712.91 1836 1695 1818.09 1695 1796V664Z" fill="url(#paint1_linear_57_23)"/>
<path d="M1400 664C1400 652.954 1408.95 644 1420 644H1628C1639.05 644 1648 652.954 1648 664V1816C1648 1827.05 1639.05 1836 1628 1836H1420C1408.95 1836 1400 1827.05 1400 1816V664Z" fill="url(#paint2_linear_57_23)"/>
<defs>
<linearGradient id="paint0_linear_57_23" x1="1325.07" y1="1198.87" x2="2523.94" y2="2925.07" gradientUnits="userSpaceOnUse">
<stop stop-color="#5C17E8"/>
<stop offset="1" stop-color="#8349E0"/>
</linearGradient>
<linearGradient id="paint1_linear_57_23" x1="1946" y1="644" x2="1946" y2="1836" gradientUnits="userSpaceOnUse">
<stop stop-color="#8842FF"/>
<stop offset="1" stop-color="#7836FF" stop-opacity="0"/>
</linearGradient>
<linearGradient id="paint2_linear_57_23" x1="1524" y1="644" x2="1524" y2="1836" gradientUnits="userSpaceOnUse">
<stop stop-color="#8842FF"/>
<stop offset="1" stop-color="#7836FF" stop-opacity="0"/>
</linearGradient>
</defs>
</svg>
