<svg width="1956" height="2241" viewBox="0 0 1956 2241" fill="none" xmlns="http://www.w3.org/2000/svg">
<path fill-rule="evenodd" clip-rule="evenodd" d="M0 650C0 291.015 291.015 0 650 0H1306C1664.98 0 1956 291.015 1956 650V1841C1956 2061.91 1776.91 2241 1556 2241H400C179.086 2241 0 2061.91 0 1841V650ZM191 698C191 421.858 414.858 198 691 198H1265C1541.14 198 1765 421.858 1765 698V1252C1765 1362.46 1675.46 1452 1565 1452H391C280.543 1452 191 1362.46 191 1252V698ZM1469 1593C1410.46 1593 1363 1640.46 1363 1699V1873C1363 1931.54 1410.46 1979 1469 1979H1490C1548.54 1979 1596 1931.54 1596 1873V1699C1596 1640.46 1548.54 1593 1490 1593H1469ZM359 1699C359 1640.46 406.458 1593 465 1593H487C545.542 1593 593 1640.46 593 1699V1873C593 1931.54 545.542 1979 487 1979H465C406.458 1979 359 1931.54 359 1873V1699ZM894 1979C894 1959.67 878.33 1944 859 1944C839.67 1944 824 1959.67 824 1979C824 2016.9 845.084 2048.22 873.198 2068.77C901.337 2089.34 938.504 2101 978 2101C1017.5 2101 1054.66 2089.34 1082.8 2068.77C1110.92 2048.22 1132 2016.9 1132 1979C1132 1959.67 1116.33 1944 1097 1944C1077.67 1944 1062 1959.67 1062 1979C1062 1989.15 1056.45 2001.33 1041.49 2012.26C1026.56 2023.18 1004.23 2031 978 2031C951.774 2031 929.441 2023.18 914.511 2012.26C899.555 2001.33 894 1989.15 894 1979Z" fill="white"/>
<path d="M476 1651C476 1618.97 502.467 1593 534.5 1593V1593C566.533 1593 593 1618.97 593 1651V1651C593 1683.03 566.533 1709 534.5 1709V1709C502.467 1709 476 1683.03 476 1651V1651Z" fill="white"/>
<path d="M1480 1651C1480 1618.97 1506.47 1593 1538.5 1593V1593C1570.53 1593 1597 1618.97 1597 1651V1651C1597 1683.03 1570.53 1709 1538.5 1709V1709C1506.47 1709 1480 1683.03 1480 1651V1651Z" fill="white"/>
</svg>
