<svg width="310" height="282" viewBox="0 0 310 282" fill="none" xmlns="http://www.w3.org/2000/svg">
<path d="M90 90C90 40.2944 130.294 0 180 0H220C269.706 0 310 40.2944 310 90V199C310 229.376 285.376 254 255 254H145C114.624 254 90 229.376 90 199V90Z" fill="#E4E4E4"/>
<path d="M110 84C110 49.2061 138.206 21 173 21H227C261.794 21 290 49.2061 290 84V149C290 154.523 285.523 159 280 159H120C114.477 159 110 154.523 110 149V84Z" fill="#F5F5F5"/>
<path d="M125.365 184.706C126.298 182.107 129.161 180.756 131.76 181.689L156.803 190.678C158.883 191.425 159.963 193.715 159.217 195.795L158.203 198.618C157.27 201.217 154.407 202.568 151.808 201.635L127.706 192.984C125.107 192.051 123.756 189.187 124.689 186.588L125.365 184.706Z" fill="#F5F5F5"/>
<path d="M126.181 207.161C125.129 204.608 126.346 201.685 128.899 200.634L152.939 190.73C155.493 189.678 158.415 190.895 159.467 193.448L160.229 195.297C161.281 197.851 160.063 200.773 157.51 201.825L133.47 211.729C130.917 212.781 127.995 211.564 126.943 209.01L126.181 207.161Z" fill="#F5F5F5"/>
<path d="M274.578 186.694C273.627 184.102 270.744 182.742 268.138 183.657L242.374 192.705C240.289 193.436 239.217 195.711 239.977 197.785L241.021 200.63C241.973 203.223 244.856 204.583 247.461 203.668L272.282 194.951C274.888 194.036 276.229 191.193 275.278 188.6L274.578 186.694Z" fill="#F5F5F5"/>
<path d="M273.755 209.146C274.827 206.601 273.619 203.701 271.058 202.669L246.31 192.694C243.748 191.662 240.803 192.888 239.732 195.433L238.94 197.312C237.869 199.857 239.076 202.757 241.637 203.79L266.386 213.764C268.947 214.797 271.892 213.57 272.964 211.025L273.755 209.146Z" fill="#F5F5F5"/>
<path d="M37.5312 84.5625V93H4.59375V84.5625H37.5312ZM37.3125 53.125L10.0312 93H2.09375V87.2188L29.6875 47.5H37.3125V53.125ZM33.7812 47.5V55.9688H1.9375V47.5H33.7812Z" fill="#E4E4E4"/>
<path d="M59.1484 135.672V142H34.4453V135.672H59.1484ZM58.9844 112.094L38.5234 142H32.5703V137.664L53.2656 107.875H58.9844V112.094ZM56.3359 107.875V114.227H32.4531V107.875H56.3359Z" fill="#E4E4E4"/>
<path d="M80.457 177.727V183H59.8711V177.727H80.457ZM80.3203 158.078L63.2695 183H58.3086V179.387L75.5547 154.562H80.3203V158.078ZM78.1133 154.562V159.855H58.2109V154.562H78.1133Z" fill="#E4E4E4"/>
<path d="M220 29C220 27.3431 221.343 26 223 26H236.5C255.002 26 270 40.9985 270 59.5V150C270 151.657 268.657 153 267 153H223C221.343 153 220 151.657 220 150V29Z" fill="#EDEDED"/>
<path d="M185 29C185 27.3431 186.343 26 188 26H207C208.657 26 210 27.3431 210 29V150C210 151.657 208.657 153 207 153H188C186.343 153 185 151.657 185 150V29Z" fill="#EDEDED"/>
<rect x="189" y="199" width="22" height="39" rx="11" fill="#F5F5F5"/>
<ellipse cx="200" cy="272" rx="70" ry="10" fill="#E4E4E4"/>
</svg>
