<svg width="1098" height="728" viewBox="0 0 1098 728" fill="none" xmlns="http://www.w3.org/2000/svg">
<path d="M239.002 172.947H243.001V63.4019C243.001 46.5867 249.681 30.4602 261.571 18.57C273.461 6.67985 289.588 2.12175e-05 306.403 2.27928e-10H538.49C546.816 -2.23245e-05 555.06 1.6399 562.753 4.82612C570.445 8.01234 577.434 12.6825 583.322 18.5699C589.209 24.4573 593.879 31.4466 597.065 39.1389C600.252 46.8311 601.892 55.0757 601.892 63.4017V664.376C601.892 672.702 600.252 680.947 597.066 688.639C593.879 696.331 589.209 703.321 583.322 709.208C577.434 715.095 570.445 719.766 562.753 722.952C555.06 726.138 546.816 727.778 538.49 727.778H306.403C289.588 727.778 273.462 721.098 261.571 709.208C249.681 697.318 243.001 681.191 243.001 664.376V250.923H239.002L239.002 172.947Z" fill="#3F3D56"/>
<path d="M303.845 16.4951H334.14C332.747 19.9108 332.215 23.6166 332.591 27.2862C332.968 30.9558 334.241 34.4765 336.298 37.5382C338.356 40.5998 341.135 43.1085 344.391 44.8432C347.646 46.5779 351.278 47.4854 354.967 47.4856H487.926C491.615 47.4854 495.248 46.5779 498.503 44.8432C501.759 43.1086 504.538 40.5999 506.595 37.5382C508.653 34.4765 509.926 30.9558 510.302 27.2862C510.679 23.6166 510.147 19.9108 508.754 16.4951H537.049C549.607 16.4951 561.65 21.4835 570.529 30.3629C579.409 39.2424 584.397 51.2854 584.397 63.8428V663.935C584.397 670.153 583.172 676.31 580.793 682.055C578.414 687.799 574.926 693.019 570.529 697.415C566.133 701.812 560.913 705.3 555.169 707.679C549.424 710.059 543.267 711.283 537.049 711.283H303.845C297.627 711.283 291.47 710.059 285.726 707.679C279.981 705.3 274.762 701.812 270.365 697.415C265.968 693.019 262.481 687.799 260.101 682.055C257.722 676.31 256.497 670.153 256.497 663.935V663.935V63.8428C256.497 57.625 257.722 51.4681 260.101 45.7236C262.481 39.9791 265.968 34.7596 270.365 30.3629C274.762 25.9663 279.981 22.4787 285.726 20.0992C291.47 17.7198 297.627 16.4951 303.845 16.4951V16.4951Z" fill="white"/>
<path d="M372.14 276.708C348.944 276.708 330.14 274.917 330.14 272.708C330.14 270.499 348.944 268.708 372.14 268.708C395.336 268.708 414.14 270.499 414.14 272.708C414.14 274.917 395.336 276.708 372.14 276.708Z" fill="#E6E6E6"/>
<path d="M0 106.868C0 103.002 3.13401 99.8682 7 99.8682H379.652C383.518 99.8682 386.652 103.002 386.652 106.868V219.799C386.652 223.665 383.518 226.799 379.652 226.799H379.006C375.14 226.799 372.006 229.933 372.006 233.799V243.097C372.006 249.334 364.466 252.457 360.056 248.047L340.859 228.849C339.546 227.537 337.766 226.799 335.909 226.799H7.00001C3.13402 226.799 0 223.665 0 219.799V106.868Z" fill="url(#paint0_linear_69_200)"/>
<path d="M167.796 142.852H343.617V148.187H167.796V142.852Z" fill="white"/>
<path d="M37.1758 161.31H343.617V166.645H37.1758V161.31Z" fill="white"/>
<path d="M37.476 179.768H343.617V185.103H37.476V179.768Z" fill="white"/>
<path d="M98.779 489.708C98.779 485.842 101.913 482.708 105.779 482.708H400.418C404.284 482.708 407.418 485.842 407.418 489.708V578.184C407.418 581.412 404.801 584.029 401.572 584.029V584.029C398.344 584.029 395.727 586.646 395.727 589.874V593.629C395.727 599.865 388.187 602.988 383.777 598.578L371.278 586.079C369.965 584.766 368.185 584.029 366.328 584.029H105.779C101.913 584.029 98.779 580.895 98.779 577.029V489.708Z" fill="url(#paint1_linear_69_200)"/>
<path d="M232.72 517.019H373.066V521.278H232.72V517.019Z" fill="white"/>
<path d="M128.455 531.753H373.066V536.012H128.455V531.753Z" fill="white"/>
<path d="M128.694 546.487H373.066V550.746H128.694V546.487Z" fill="white"/>
<path d="M395.835 623.868C377.319 623.868 362.309 622.438 362.309 620.675C362.309 618.911 377.319 617.482 395.835 617.482C414.35 617.482 429.36 618.911 429.36 620.675C429.36 622.438 414.35 623.868 395.835 623.868Z" fill="#E6E6E6"/>
<path d="M488.14 424.708C464.944 424.708 446.14 422.917 446.14 420.708C446.14 418.499 464.944 416.708 488.14 416.708C511.336 416.708 530.14 418.499 530.14 420.708C530.14 422.917 511.336 424.708 488.14 424.708Z" fill="#E6E6E6"/>
<path d="M745.563 305.894C745.563 302.028 742.429 298.894 738.563 298.894H480.656C476.79 298.894 473.656 302.028 473.656 305.894V383.007C473.656 385.851 475.962 388.157 478.806 388.157V388.157C481.65 388.157 483.956 390.463 483.956 393.307V394.995C483.956 401.086 491.321 404.137 495.628 399.83L505.251 390.207C506.563 388.895 508.344 388.157 510.2 388.157H738.563C742.429 388.157 745.563 385.023 745.563 381.157V305.894Z" fill="url(#paint2_linear_69_200)"/>
<path d="M593.717 328.436H717.36V332.188H593.717V328.436Z" fill="white"/>
<path d="M501.86 341.416H717.36V345.168H501.86V341.416Z" fill="white"/>
<path d="M502.071 354.396H717.36V358.148H502.071V354.396Z" fill="white"/>
<path d="M882.726 727.719C1001.32 727.719 1097.45 723.242 1097.45 717.719C1097.45 712.196 1001.32 707.719 882.726 707.719C764.136 707.719 668 712.196 668 717.719C668 723.242 764.136 727.719 882.726 727.719Z" fill="#E6E6E6"/>
<path d="M985.988 565.315C983.295 565.316 980.684 566.24 978.591 567.935C976.497 569.63 975.049 571.991 974.488 574.625H990.889V615.786H974.488C975.093 618.628 976.729 621.145 979.08 622.853C981.431 624.56 984.331 625.336 987.221 625.032C990.111 624.727 992.785 623.364 994.729 621.204C996.673 619.045 997.749 616.242 997.749 613.336V577.075C997.749 575.531 997.445 574.002 996.854 572.575C996.263 571.148 995.396 569.852 994.304 568.759C993.212 567.667 991.916 566.801 990.489 566.21C989.062 565.619 987.533 565.315 985.988 565.315V565.315Z" fill="#3F3D56"/>
<path d="M853.759 493.283C848.153 493.29 842.779 495.519 838.815 499.483C834.851 503.447 832.621 508.822 832.615 514.427V676.964C832.621 682.57 834.851 687.944 838.815 691.908C842.779 695.872 848.153 698.102 853.759 698.108H956.514C962.12 698.102 967.494 695.872 971.458 691.908C975.422 687.944 977.652 682.57 977.658 676.964V514.427C977.652 508.822 975.422 503.447 971.458 499.483C967.494 495.519 962.12 493.29 956.514 493.283H853.759Z" fill="#3F3D56"/>
<path d="M842.905 717.219C848.859 717.219 853.685 712.392 853.685 706.438C853.685 700.485 848.859 695.658 842.905 695.658C836.951 695.658 832.125 700.485 832.125 706.438C832.125 712.392 836.951 717.219 842.905 717.219Z" fill="#3F3D56"/>
<path d="M963.448 717.219C969.402 717.219 974.228 712.392 974.228 706.438C974.228 700.485 969.402 695.658 963.448 695.658C957.494 695.658 952.668 700.485 952.668 706.438C952.668 712.392 957.494 717.219 963.448 717.219Z" fill="#3F3D56"/>
<path d="M856.625 491.813H850.745V698.598H856.625V491.813Z" fill="#4D4D4D"/>
<path d="M873.286 491.813H867.406V698.598H873.286V491.813Z" fill="#4D4D4D"/>
<path d="M889.946 491.813H884.066V698.598H889.946V491.813Z" fill="#4D4D4D"/>
<path d="M906.606 491.813H900.726V698.598H906.606V491.813Z" fill="#4D4D4D"/>
<path d="M923.267 491.813H917.387V698.598H923.267V491.813Z" fill="#4D4D4D"/>
<path d="M939.927 491.813H934.047V698.598H939.927V491.813Z" fill="#4D4D4D"/>
<path d="M956.588 491.813H950.708V698.598H956.588V491.813Z" fill="#4D4D4D"/>
<path d="M955.008 476.133C958.85 469.597 960.876 462.154 960.875 454.572H856.748C856.747 462.154 858.773 469.597 862.615 476.133H841.435C841.435 487.499 851.033 496.713 862.873 496.713H889.109C893.517 498.018 898.09 498.678 902.686 498.673H914.937C919.533 498.678 924.107 498.018 928.514 496.713H954.75C966.59 496.713 976.188 487.499 976.188 476.133H955.008Z" fill="#2F2E41"/>
<path d="M878.092 624.606C878.285 626.696 877.841 628.795 876.817 630.626C875.794 632.458 874.239 633.937 872.358 634.867L872.306 634.896C862.504 640.487 854.484 644.876 844.966 644.067C844.007 643.982 843.08 643.677 842.258 643.175C841.436 642.673 840.741 641.989 840.228 641.174C839.714 640.36 839.395 639.438 839.296 638.48C839.197 637.523 839.32 636.555 839.656 635.653L853.195 609.906C861.06 600.743 866.602 600.734 876.226 608.436L878.092 624.606Z" fill="#2F2E41"/>
<path d="M934.141 624.606C933.948 626.696 934.392 628.795 935.416 630.626C936.439 632.458 937.994 633.937 939.875 634.867L939.927 634.896C949.729 640.487 957.749 644.876 967.267 644.067C968.226 643.982 969.153 643.677 969.975 643.175C970.797 642.673 971.492 641.989 972.005 641.174C972.519 640.36 972.838 639.438 972.937 638.48C973.036 637.523 972.913 636.555 972.577 635.653L959.038 609.906C951.173 600.743 945.631 600.734 936.007 608.436L934.141 624.606Z" fill="#2F2E41"/>
<path d="M894.793 321.289H857.12C855.413 321.292 853.751 320.745 852.38 319.729C851.008 318.713 850.001 317.282 849.506 315.648C848.346 311.782 846.849 308.031 846.825 304.629C846.733 291.424 847.389 283.019 853.195 277.678C872.541 263.008 886.559 265.707 899.746 281.108C904.376 289.712 903.187 302.554 900.683 316.354C900.435 317.736 899.71 318.987 898.633 319.889C897.557 320.792 896.198 321.287 894.793 321.289Z" fill="#2F2E41"/>
<path d="M875.246 337.95C889.318 337.95 900.726 326.541 900.726 312.469C900.726 298.396 889.318 286.988 875.246 286.988C861.173 286.988 849.765 298.396 849.765 312.469C849.765 326.541 861.173 337.95 875.246 337.95Z" fill="#A0616A"/>
<path d="M894.846 363.43L859.565 364.41L856.625 326.189L890.926 325.209L894.846 363.43Z" fill="#A0616A"/>
<path d="M954.628 454.572L930.283 465.841C926.204 475.518 920.58 475.239 913.467 465.353C906.677 477.244 892.053 470.118 884.908 464.924C880.302 462.577 875.208 461.348 870.039 461.337C864.87 461.327 859.771 462.534 855.155 464.863L829.185 349.71C837.19 342.828 847.857 338.505 858.095 335.5L878.186 360.49L891.906 335.99C901.442 328.322 914.837 328.308 929.147 330.109L937.502 374.779C931.992 410.015 940.278 427.689 954.628 454.572Z" fill="url(#paint3_linear_69_200)"/>
<path d="M874.266 606.476L853.685 608.436L823.197 473.689C822.504 470.568 822.52 467.332 823.245 464.219C823.969 461.105 825.384 458.195 827.384 455.701C829.384 453.208 831.919 451.195 834.801 449.813C837.683 448.43 840.838 447.712 844.035 447.712V447.712C847.074 447.712 850.078 448.361 852.847 449.616C855.615 450.87 858.083 452.701 860.087 454.987C862.09 457.272 863.582 459.959 864.464 462.868C865.345 465.777 865.595 468.84 865.197 471.853L861.525 499.653L874.266 606.476Z" fill="#2F2E41"/>
<path d="M936.007 608.436L956.588 607.456L987.076 473.689C987.769 470.568 987.753 467.332 987.029 464.219C986.304 461.105 984.889 458.195 982.889 455.701C980.889 453.208 978.354 451.195 975.472 449.813C972.59 448.43 969.435 447.712 966.238 447.712V447.712C963.199 447.712 960.195 448.361 957.426 449.616C954.658 450.87 952.19 452.701 950.186 454.987C948.183 457.272 946.691 459.959 945.809 462.868C944.928 465.777 944.678 468.84 945.076 471.853L948.748 499.653L936.007 608.436Z" fill="#2F2E41"/>
<path d="M1002.9 415.057L985.499 459.962C975.984 452.688 968.312 451.695 957.758 455.553C954.84 455.147 952.668 448.732 952.668 445.786C952.668 444.267 953.253 442.806 954.303 441.708C955.352 440.609 956.785 439.958 958.303 439.889L974.228 439.165C977.142 431.536 978.913 423.518 979.483 415.371C987.125 413.203 995.204 413.095 1002.9 415.057V415.057Z" fill="#A0616A"/>
<path d="M1004.61 416.351L1008.85 400.521C1010.7 394.731 1010.52 388.482 1008.34 382.81C1006.15 377.137 1002.09 372.383 996.83 369.335L929.147 330.109L928.167 373.23L978.148 394.791C979.529 402.127 979.977 409.609 979.483 417.058C987.28 414.741 996.793 414.249 1004.61 416.351Z" fill="url(#paint4_linear_69_200)"/>
<path d="M900.236 298.258L873.776 303.159C871.33 303.159 868.909 302.677 866.65 301.741C864.391 300.805 862.338 299.434 860.609 297.705C858.88 295.976 857.508 293.923 856.573 291.664C855.637 289.405 855.155 286.983 855.155 284.538H901.216L900.236 298.258Z" fill="#2F2E41"/>
<path d="M851.725 308.059C853.078 308.059 854.175 305.865 854.175 303.158C854.175 300.452 853.078 298.258 851.725 298.258C850.372 298.258 849.275 300.452 849.275 303.158C849.275 305.865 850.372 308.059 851.725 308.059Z" fill="#A0616A"/>
<path d="M932.577 381.151H932.292V373.354C932.292 372.762 932.176 372.175 931.949 371.627C931.722 371.08 931.39 370.582 930.971 370.163C930.552 369.744 930.054 369.412 929.507 369.185C928.959 368.959 928.373 368.842 927.78 368.842H911.262C910.669 368.842 910.083 368.959 909.535 369.185C908.988 369.412 908.49 369.744 908.071 370.163C907.652 370.582 907.32 371.08 907.093 371.627C906.866 372.175 906.75 372.762 906.75 373.354V416.127C906.75 416.719 906.866 417.306 907.093 417.853C907.32 418.401 907.652 418.898 908.071 419.317C908.49 419.736 908.988 420.069 909.535 420.296C910.083 420.522 910.669 420.639 911.262 420.639H927.78C928.373 420.639 928.959 420.522 929.507 420.296C930.054 420.069 930.552 419.736 930.971 419.317C931.39 418.898 931.722 418.401 931.949 417.853C932.176 417.306 932.292 416.719 932.292 416.127V386.7H932.577V381.151Z" fill="#3F3D56"/>
<path d="M918.857 385.481C921.022 385.481 922.777 383.726 922.777 381.561C922.777 379.396 921.022 377.641 918.857 377.641C916.692 377.641 914.937 379.396 914.937 381.561C914.937 383.726 916.692 385.481 918.857 385.481Z" fill="#6C63FF"/>
<path d="M915.427 417.331C895.268 433.156 875.056 446.328 860.055 448.202L857.605 421.252C872.012 419.175 891.275 409.683 911.507 398.711L921.402 393.565C922.998 392.736 924.774 392.314 926.572 392.339C928.371 392.364 930.135 392.835 931.707 393.708C933.279 394.582 934.61 395.832 935.581 397.346C936.552 398.86 937.132 400.591 937.27 402.384V402.384C937.465 404.927 936.761 407.459 935.28 409.535C933.8 411.612 931.636 413.103 929.168 413.747L915.427 417.331Z" fill="#A0616A"/>
<path d="M877.206 448.692L837.025 449.672C823.505 423.148 818.598 394.845 821.344 364.96C821.344 361.767 822.119 358.621 823.601 355.792C825.083 352.963 827.229 350.536 829.854 348.718L834.085 345.79C852.172 372.64 863.391 397.575 859.565 418.311L871.326 417.331C863.71 427.61 867.235 438.092 877.206 448.692Z" fill="url(#paint5_linear_69_200)"/>
<defs>
<linearGradient id="paint0_linear_69_200" x1="386.652" y1="99.8682" x2="386.652" y2="259.997" gradientUnits="userSpaceOnUse">
<stop stop-color="#5C17E8"/>
<stop offset="1" stop-color="#8349E0"/>
</linearGradient>
<linearGradient id="paint1_linear_69_200" x1="407.418" y1="482.708" x2="407.418" y2="610.528" gradientUnits="userSpaceOnUse">
<stop stop-color="#5C17E8"/>
<stop offset="1" stop-color="#8349E0"/>
</linearGradient>
<linearGradient id="paint2_linear_69_200" x1="745.563" y1="298.894" x2="745.563" y2="411.502" gradientUnits="userSpaceOnUse">
<stop stop-color="#5C17E8"/>
<stop offset="1" stop-color="#8349E0"/>
</linearGradient>
<linearGradient id="paint3_linear_69_200" x1="891.906" y1="329.129" x2="891.906" y2="472.936" gradientUnits="userSpaceOnUse">
<stop stop-color="#5F1AE7"/>
<stop offset="1" stop-color="#7E42E1"/>
</linearGradient>
<linearGradient id="paint4_linear_69_200" x1="969.143" y1="330.109" x2="969.143" y2="417.058" gradientUnits="userSpaceOnUse">
<stop stop-color="#5F1AE7"/>
<stop offset="1" stop-color="#7E42E1"/>
</linearGradient>
<linearGradient id="paint5_linear_69_200" x1="848.908" y1="345.79" x2="848.908" y2="449.672" gradientUnits="userSpaceOnUse">
<stop stop-color="#5F1AE7"/>
<stop offset="1" stop-color="#7E42E1"/>
</linearGradient>
</defs>
</svg>
