<svg width="754" height="768" viewBox="0 0 754 768" fill="none" xmlns="http://www.w3.org/2000/svg">
<path d="M248.002 172.947H252.001V63.4019C252.001 46.5867 258.681 30.4602 270.571 18.57C282.461 6.67985 298.588 2.12175e-05 315.403 2.27928e-10H547.49C555.816 -2.23245e-05 564.06 1.6399 571.753 4.82612C579.445 8.01234 586.434 12.6825 592.322 18.5699C598.209 24.4573 602.879 31.4466 606.065 39.1389C609.252 46.8311 610.892 55.0757 610.892 63.4017V664.376C610.892 672.702 609.252 680.947 606.066 688.639C602.879 696.331 598.209 703.321 592.322 709.208C586.434 715.095 579.445 719.766 571.753 722.952C564.06 726.138 555.816 727.778 547.49 727.778H315.403C298.588 727.778 282.462 721.098 270.571 709.208C258.681 697.318 252.001 681.191 252.001 664.376V250.923H248.002L248.002 172.947Z" fill="#3F3D56"/>
<path d="M312.845 16.4951H343.14C341.747 19.9108 341.215 23.6166 341.591 27.2862C341.968 30.9558 343.241 34.4765 345.298 37.5382C347.356 40.5998 350.135 43.1085 353.391 44.8432C356.646 46.5779 360.278 47.4854 363.967 47.4856H496.926C500.615 47.4854 504.248 46.5779 507.503 44.8432C510.759 43.1086 513.538 40.5999 515.595 37.5382C517.653 34.4765 518.926 30.9558 519.302 27.2862C519.679 23.6166 519.147 19.9108 517.754 16.4951H546.049C558.607 16.4951 570.65 21.4835 579.529 30.3629C588.409 39.2424 593.397 51.2854 593.397 63.8428V663.935C593.397 670.153 592.172 676.31 589.793 682.055C587.414 687.799 583.926 693.019 579.529 697.415C575.133 701.812 569.913 705.3 564.169 707.679C558.424 710.059 552.267 711.283 546.049 711.283H312.845C306.627 711.283 300.47 710.059 294.726 707.679C288.981 705.3 283.762 701.812 279.365 697.415C274.968 693.019 271.481 687.799 269.101 682.055C266.722 676.31 265.497 670.153 265.497 663.935V63.8428C265.497 57.625 266.722 51.4681 269.101 45.7236C271.481 39.9791 274.968 34.7596 279.365 30.3629C283.762 25.9663 288.981 22.4787 294.726 20.0992C300.47 17.7198 306.627 16.4951 312.845 16.4951Z" fill="white"/>
<path d="M437.14 307.84C413.944 307.84 395.14 306.049 395.14 303.84C395.14 301.631 413.944 299.84 437.14 299.84C460.336 299.84 479.14 301.631 479.14 303.84C479.14 306.049 460.336 307.84 437.14 307.84Z" fill="#E6E6E6"/>
<path d="M65 138C65 134.134 68.134 131 72 131H444.652C448.518 131 451.652 134.134 451.652 138V250.931C451.652 254.797 448.518 257.931 444.652 257.931H444.006C440.14 257.931 437.006 261.065 437.006 264.931V274.229C437.006 280.466 429.466 283.589 425.056 279.179L405.859 259.981C404.546 258.669 402.766 257.931 400.909 257.931H72C68.134 257.931 65 254.797 65 250.931V138Z" fill="url(#paint0_linear_73_115)"/>
<path d="M232.796 173.983H408.617V179.319H232.796V173.983Z" fill="white"/>
<path d="M102.176 192.441H408.617V197.777H102.176V192.441Z" fill="white"/>
<path d="M102.476 210.899H408.617V216.235H102.476V210.899Z" fill="white"/>
<path d="M496 523.813C472.804 523.813 454 522.023 454 519.813C454 517.604 472.804 515.813 496 515.813C519.196 515.813 538 517.604 538 519.813C538 522.023 519.196 523.813 496 523.813Z" fill="#E6E6E6"/>
<path d="M753.423 405C753.423 401.134 750.289 398 746.423 398H488.516C484.65 398 481.516 401.134 481.516 405V482.113C481.516 484.957 483.822 487.263 486.666 487.263V487.263C489.51 487.263 491.816 489.569 491.816 492.413V494.101C491.816 500.192 499.181 503.243 503.489 498.936L513.111 489.313C514.424 488 516.204 487.263 518.061 487.263H746.423C750.289 487.263 753.423 484.129 753.423 480.263V405Z" fill="url(#paint1_linear_73_115)"/>
<path d="M601.577 427.541H725.22V431.293H601.577V427.541Z" fill="white"/>
<path d="M509.72 440.521H725.22V444.274H509.72V440.521Z" fill="white"/>
<path d="M509.931 453.502H725.22V457.254H509.931V453.502Z" fill="white"/>
<path d="M214.726 767.719C333.317 767.719 429.453 763.242 429.453 757.719C429.453 752.196 333.317 747.719 214.726 747.719C96.1363 747.719 0 752.196 0 757.719C0 763.242 96.1363 767.719 214.726 767.719Z" fill="#E6E6E6"/>
<path d="M317.988 605.314C315.295 605.315 312.684 606.24 310.591 607.935C308.497 609.629 307.049 611.991 306.488 614.625H322.889V655.786H306.488C307.093 658.628 308.729 661.145 311.08 662.852C313.431 664.559 316.331 665.336 319.221 665.031C322.111 664.727 324.785 663.363 326.729 661.204C328.673 659.044 329.749 656.241 329.749 653.336V617.075C329.749 615.53 329.445 614.001 328.854 612.574C328.263 611.147 327.396 609.851 326.304 608.759C325.212 607.667 323.916 606.801 322.489 606.21C321.062 605.619 319.533 605.314 317.988 605.314Z" fill="#3F3D56"/>
<path d="M185.759 533.283C180.153 533.29 174.779 535.519 170.815 539.483C166.851 543.447 164.621 548.822 164.615 554.427V716.964C164.621 722.57 166.851 727.944 170.815 731.908C174.779 735.872 180.153 738.102 185.759 738.108H288.514C294.12 738.102 299.494 735.872 303.458 731.908C307.422 727.944 309.652 722.57 309.658 716.964V554.427C309.652 548.822 307.422 543.447 303.458 539.483C299.494 535.519 294.12 533.29 288.514 533.283H185.759Z" fill="#3F3D56"/>
<path d="M174.905 757.219C180.859 757.219 185.685 752.392 185.685 746.438C185.685 740.485 180.859 735.658 174.905 735.658C168.951 735.658 164.125 740.485 164.125 746.438C164.125 752.392 168.951 757.219 174.905 757.219Z" fill="#3F3D56"/>
<path d="M295.448 757.219C301.402 757.219 306.228 752.392 306.228 746.438C306.228 740.485 301.402 735.658 295.448 735.658C289.494 735.658 284.668 740.485 284.668 746.438C284.668 752.392 289.494 757.219 295.448 757.219Z" fill="#3F3D56"/>
<path d="M188.625 531.812H182.745V738.598H188.625V531.812Z" fill="#4D4D4D"/>
<path d="M205.286 531.812H199.406V738.598H205.286V531.812Z" fill="#4D4D4D"/>
<path d="M221.946 531.812H216.066V738.598H221.946V531.812Z" fill="#4D4D4D"/>
<path d="M238.606 531.812H232.726V738.598H238.606V531.812Z" fill="#4D4D4D"/>
<path d="M255.267 531.812H249.387V738.598H255.267V531.812Z" fill="#4D4D4D"/>
<path d="M271.927 531.812H266.047V738.598H271.927V531.812Z" fill="#4D4D4D"/>
<path d="M288.588 531.812H282.708V738.598H288.588V531.812Z" fill="#4D4D4D"/>
<path d="M287.008 516.133C290.85 509.597 292.876 502.154 292.875 494.572H188.748C188.747 502.154 190.773 509.597 194.615 516.133H173.435C173.435 527.499 183.033 536.713 194.873 536.713H221.109C225.517 538.018 230.09 538.678 234.686 538.673H246.937C251.533 538.678 256.107 538.018 260.514 536.713H286.75C298.59 536.713 308.188 527.499 308.188 516.133H287.008Z" fill="#2F2E41"/>
<path d="M210.092 664.606C210.285 666.695 209.841 668.794 208.817 670.626C207.794 672.458 206.239 673.936 204.358 674.867L204.306 674.896C194.504 680.486 186.484 684.875 176.966 684.067C176.007 683.982 175.08 683.676 174.258 683.175C173.436 682.673 172.741 681.988 172.228 681.174C171.714 680.36 171.395 679.438 171.296 678.48C171.197 677.522 171.32 676.554 171.656 675.652L185.195 649.905C193.06 640.743 198.602 640.734 208.226 648.435L210.092 664.606Z" fill="#2F2E41"/>
<path d="M266.141 664.606C265.948 666.695 266.392 668.794 267.416 670.626C268.439 672.458 269.994 673.936 271.875 674.867L271.927 674.896C281.729 680.486 289.749 684.875 299.267 684.067C300.226 683.982 301.153 683.676 301.975 683.175C302.797 682.673 303.492 681.988 304.005 681.174C304.519 680.36 304.838 679.438 304.937 678.48C305.036 677.522 304.913 676.554 304.577 675.652L291.038 649.905C283.173 640.743 277.631 640.734 268.007 648.435L266.141 664.606Z" fill="#2F2E41"/>
<path d="M226.793 361.289H189.12C187.413 361.292 185.751 360.745 184.38 359.729C183.008 358.713 182.001 357.282 181.506 355.648C180.346 351.782 178.849 348.031 178.825 344.629C178.733 331.424 179.389 323.019 185.195 317.678C204.541 303.008 218.559 305.707 231.746 321.108C236.376 329.712 235.187 342.554 232.683 356.354C232.435 357.736 231.71 358.987 230.633 359.889C229.557 360.792 228.198 361.287 226.793 361.289Z" fill="#2F2E41"/>
<path d="M207.246 377.95C221.318 377.95 232.726 366.541 232.726 352.469C232.726 338.396 221.318 326.988 207.246 326.988C193.173 326.988 181.765 338.396 181.765 352.469C181.765 366.541 193.173 377.95 207.246 377.95Z" fill="#A0616A"/>
<path d="M226.846 403.43L191.565 404.41L188.625 366.189L222.926 365.209L226.846 403.43Z" fill="#A0616A"/>
<path d="M286.628 494.572L262.283 505.841C258.204 515.518 252.58 515.239 245.467 505.353C238.677 517.244 224.053 510.118 216.908 504.924C212.302 502.577 207.208 501.348 202.039 501.337C196.87 501.327 191.771 502.534 187.155 504.863L161.185 389.71C169.19 382.828 179.857 378.505 190.095 375.5L210.186 400.49L223.906 375.99C233.442 368.322 246.837 368.308 261.147 370.109L269.502 414.779C263.992 450.015 272.278 467.689 286.628 494.572Z" fill="url(#paint2_linear_73_115)"/>
<path d="M206.266 646.476L185.685 648.436L155.197 513.689C154.504 510.568 154.52 507.332 155.245 504.219C155.969 501.105 157.384 498.195 159.384 495.701C161.384 493.208 163.919 491.195 166.801 489.813C169.683 488.43 172.838 487.712 176.035 487.712C179.074 487.712 182.078 488.361 184.847 489.616C187.615 490.87 190.083 492.701 192.087 494.987C194.09 497.272 195.582 499.959 196.464 502.868C197.345 505.777 197.595 508.84 197.197 511.853L193.525 539.653L206.266 646.476Z" fill="#2F2E41"/>
<path d="M268.007 648.436L288.588 647.456L319.076 513.689C319.769 510.568 319.753 507.332 319.029 504.219C318.304 501.105 316.889 498.195 314.889 495.701C312.889 493.208 310.354 491.195 307.472 489.813C304.59 488.43 301.435 487.712 298.238 487.712C295.199 487.712 292.195 488.361 289.426 489.616C286.658 490.87 284.19 492.701 282.186 494.987C280.183 497.272 278.691 499.959 277.809 502.868C276.928 505.777 276.678 508.84 277.076 511.853L280.748 539.653L268.007 648.436Z" fill="#2F2E41"/>
<path d="M334.901 455.057L317.499 499.962C307.984 492.688 300.312 491.695 289.758 495.553C286.84 495.147 284.668 488.732 284.668 485.786C284.668 484.267 285.253 482.806 286.303 481.708C287.352 480.609 288.785 479.958 290.303 479.889L306.228 479.165C309.142 471.536 310.913 463.518 311.483 455.371C319.125 453.203 327.204 453.095 334.901 455.057Z" fill="#A0616A"/>
<path d="M336.609 456.351L340.851 440.521C342.704 434.731 342.522 428.482 340.336 422.81C338.149 417.137 334.089 412.383 328.83 409.335L261.147 370.109L260.167 413.23L310.148 434.791C311.529 442.127 311.977 449.609 311.483 457.058C319.28 454.741 328.793 454.249 336.609 456.351Z" fill="url(#paint3_linear_73_115)"/>
<path d="M232.236 338.258L205.776 343.159C203.33 343.159 200.909 342.677 198.65 341.741C196.391 340.805 194.338 339.434 192.609 337.705C190.88 335.976 189.508 333.923 188.573 331.664C187.637 329.405 187.155 326.983 187.155 324.538H233.216L232.236 338.258Z" fill="#2F2E41"/>
<path d="M183.725 348.058C185.078 348.058 186.175 345.864 186.175 343.158C186.175 340.452 185.078 338.258 183.725 338.258C182.372 338.258 181.275 340.452 181.275 343.158C181.275 345.864 182.372 348.058 183.725 348.058Z" fill="#A0616A"/>
<path d="M264.577 421.151H264.292V413.354C264.292 412.762 264.176 412.175 263.949 411.627C263.722 411.08 263.39 410.582 262.971 410.163C262.552 409.744 262.054 409.412 261.507 409.185C260.959 408.959 260.373 408.842 259.78 408.842H243.262C242.669 408.842 242.083 408.959 241.535 409.185C240.988 409.412 240.49 409.744 240.071 410.163C239.652 410.582 239.32 411.08 239.093 411.627C238.866 412.175 238.75 412.762 238.75 413.354V456.127C238.75 456.719 238.866 457.306 239.093 457.853C239.32 458.401 239.652 458.898 240.071 459.317C240.49 459.736 240.988 460.069 241.535 460.296C242.083 460.522 242.669 460.639 243.262 460.639H259.78C260.373 460.639 260.959 460.522 261.507 460.296C262.054 460.069 262.552 459.736 262.971 459.317C263.39 458.898 263.722 458.401 263.949 457.853C264.176 457.306 264.292 456.719 264.292 456.127V426.7H264.577V421.151Z" fill="#3F3D56"/>
<path d="M250.857 425.481C253.022 425.481 254.777 423.726 254.777 421.561C254.777 419.396 253.022 417.641 250.857 417.641C248.692 417.641 246.937 419.396 246.937 421.561C246.937 423.726 248.692 425.481 250.857 425.481Z" fill="#6C63FF"/>
<path d="M247.427 457.331C227.268 473.156 207.056 486.328 192.055 488.202L189.605 461.251C204.012 459.174 223.275 449.683 243.507 438.71L253.402 433.565C254.998 432.735 256.774 432.314 258.572 432.339C260.371 432.364 262.135 432.834 263.707 433.708C265.279 434.582 266.61 435.831 267.581 437.345C268.552 438.859 269.132 440.591 269.27 442.384C269.465 444.927 268.761 447.458 267.28 449.535C265.8 451.612 263.636 453.102 261.168 453.746L247.427 457.331Z" fill="#A0616A"/>
<path d="M209.206 488.692L169.025 489.672C155.505 463.148 150.598 434.844 153.344 404.96C153.344 401.766 154.119 398.62 155.601 395.792C157.083 392.963 159.229 390.535 161.854 388.718L166.085 385.789C184.172 412.64 195.391 437.574 191.565 458.311L203.326 457.331C195.71 467.61 199.235 478.092 209.206 488.692Z" fill="url(#paint4_linear_73_115)"/>
<defs>
<linearGradient id="paint0_linear_73_115" x1="451.652" y1="131" x2="451.652" y2="291.129" gradientUnits="userSpaceOnUse">
<stop stop-color="#5C17E8"/>
<stop offset="1" stop-color="#8349E0"/>
</linearGradient>
<linearGradient id="paint1_linear_73_115" x1="753.423" y1="398" x2="753.423" y2="510.608" gradientUnits="userSpaceOnUse">
<stop stop-color="#5C17E8"/>
<stop offset="1" stop-color="#8349E0"/>
</linearGradient>
<linearGradient id="paint2_linear_73_115" x1="223.906" y1="369.129" x2="223.906" y2="512.936" gradientUnits="userSpaceOnUse">
<stop stop-color="#5F1AE7"/>
<stop offset="1" stop-color="#7E42E1"/>
</linearGradient>
<linearGradient id="paint3_linear_73_115" x1="301.143" y1="370.109" x2="301.143" y2="457.058" gradientUnits="userSpaceOnUse">
<stop stop-color="#5F1AE7"/>
<stop offset="1" stop-color="#7E42E1"/>
</linearGradient>
<linearGradient id="paint4_linear_73_115" x1="180.908" y1="385.789" x2="180.908" y2="489.672" gradientUnits="userSpaceOnUse">
<stop stop-color="#5F1AE7"/>
<stop offset="1" stop-color="#7E42E1"/>
</linearGradient>
</defs>
</svg>
