<svg id="visual" viewBox="0 0 960 125" width="960" height="125" xmlns="http://www.w3.org/2000/svg" xmlns:xlink="http://www.w3.org/1999/xlink" version="1.1"><path d="M0 35L10.7 33.2C21.3 31.3 42.7 27.7 64 25.7C85.3 23.7 106.7 23.3 128 23.8C149.3 24.3 170.7 25.7 192 27.3C213.3 29 234.7 31 256 28.7C277.3 26.3 298.7 19.7 320 18.7C341.3 17.7 362.7 22.3 384 26C405.3 29.7 426.7 32.3 448 31C469.3 29.7 490.7 24.3 512 22.8C533.3 21.3 554.7 23.7 576 23.5C597.3 23.3 618.7 20.7 640 22.3C661.3 24 682.7 30 704 29.2C725.3 28.3 746.7 20.7 768 21C789.3 21.3 810.7 29.7 832 34C853.3 38.3 874.7 38.7 896 36.7C917.3 34.7 938.7 30.3 949.3 28.2L960 26L960 126L949.3 126C938.7 126 917.3 126 896 126C874.7 126 853.3 126 832 126C810.7 126 789.3 126 768 126C746.7 126 725.3 126 704 126C682.7 126 661.3 126 640 126C618.7 126 597.3 126 576 126C554.7 126 533.3 126 512 126C490.7 126 469.3 126 448 126C426.7 126 405.3 126 384 126C362.7 126 341.3 126 320 126C298.7 126 277.3 126 256 126C234.7 126 213.3 126 192 126C170.7 126 149.3 126 128 126C106.7 126 85.3 126 64 126C42.7 126 21.3 126 10.7 126L0 126Z" fill="#eadcff"></path><path d="M0 39L10.7 38.8C21.3 38.7 42.7 38.3 64 38.5C85.3 38.7 106.7 39.3 128 42.7C149.3 46 170.7 52 192 52.5C213.3 53 234.7 48 256 45C277.3 42 298.7 41 320 40.7C341.3 40.3 362.7 40.7 384 42.2C405.3 43.7 426.7 46.3 448 45.3C469.3 44.3 490.7 39.7 512 40.3C533.3 41 554.7 47 576 46.8C597.3 46.7 618.7 40.3 640 41.3C661.3 42.3 682.7 50.7 704 52.7C725.3 54.7 746.7 50.3 768 48C789.3 45.7 810.7 45.3 832 44.5C853.3 43.7 874.7 42.3 896 43.3C917.3 44.3 938.7 47.7 949.3 49.3L960 51L960 126L949.3 126C938.7 126 917.3 126 896 126C874.7 126 853.3 126 832 126C810.7 126 789.3 126 768 126C746.7 126 725.3 126 704 126C682.7 126 661.3 126 640 126C618.7 126 597.3 126 576 126C554.7 126 533.3 126 512 126C490.7 126 469.3 126 448 126C426.7 126 405.3 126 384 126C362.7 126 341.3 126 320 126C298.7 126 277.3 126 256 126C234.7 126 213.3 126 192 126C170.7 126 149.3 126 128 126C106.7 126 85.3 126 64 126C42.7 126 21.3 126 10.7 126L0 126Z" fill="#c29ffa"></path><path d="M0 72L10.7 73.7C21.3 75.3 42.7 78.7 64 79.8C85.3 81 106.7 80 128 76.5C149.3 73 170.7 67 192 67.7C213.3 68.3 234.7 75.7 256 76.3C277.3 77 298.7 71 320 69.5C341.3 68 362.7 71 384 72.8C405.3 74.7 426.7 75.3 448 74.2C469.3 73 490.7 70 512 68C533.3 66 554.7 65 576 64C597.3 63 618.7 62 640 64.8C661.3 67.7 682.7 74.3 704 78.7C725.3 83 746.7 85 768 81.7C789.3 78.3 810.7 69.7 832 65.2C853.3 60.7 874.7 60.3 896 61.8C917.3 63.3 938.7 66.7 949.3 68.3L960 70L960 126L949.3 126C938.7 126 917.3 126 896 126C874.7 126 853.3 126 832 126C810.7 126 789.3 126 768 126C746.7 126 725.3 126 704 126C682.7 126 661.3 126 640 126C618.7 126 597.3 126 576 126C554.7 126 533.3 126 512 126C490.7 126 469.3 126 448 126C426.7 126 405.3 126 384 126C362.7 126 341.3 126 320 126C298.7 126 277.3 126 256 126C234.7 126 213.3 126 192 126C170.7 126 149.3 126 128 126C106.7 126 85.3 126 64 126C42.7 126 21.3 126 10.7 126L0 126Z" fill="#9562f2"></path><path d="M0 95L10.7 98C21.3 101 42.7 107 64 106.3C85.3 105.7 106.7 98.3 128 95.8C149.3 93.3 170.7 95.7 192 98C213.3 100.3 234.7 102.7 256 104.5C277.3 106.3 298.7 107.7 320 106.3C341.3 105 362.7 101 384 99C405.3 97 426.7 97 448 94.8C469.3 92.7 490.7 88.3 512 87C533.3 85.7 554.7 87.3 576 90.8C597.3 94.3 618.7 99.7 640 103.8C661.3 108 682.7 111 704 108.8C725.3 106.7 746.7 99.3 768 99.3C789.3 99.3 810.7 106.7 832 109C853.3 111.3 874.7 108.7 896 107.7C917.3 106.7 938.7 107.3 949.3 107.7L960 108L960 126L949.3 126C938.7 126 917.3 126 896 126C874.7 126 853.3 126 832 126C810.7 126 789.3 126 768 126C746.7 126 725.3 126 704 126C682.7 126 661.3 126 640 126C618.7 126 597.3 126 576 126C554.7 126 533.3 126 512 126C490.7 126 469.3 126 448 126C426.7 126 405.3 126 384 126C362.7 126 341.3 126 320 126C298.7 126 277.3 126 256 126C234.7 126 213.3 126 192 126C170.7 126 149.3 126 128 126C106.7 126 85.3 126 64 126C42.7 126 21.3 126 10.7 126L0 126Z" fill="#5c17e8"></path></svg>